<?xml version="1.0" encoding="utf-8"?>
<!-- Generator: Adobe Illustrator 24.2.3, SVG Export Plug-In . SVG Version: 6.00 Build 0)  -->
<svg width="93px" height="73px"  version="1.2" baseProfile="tiny" id="Calque_1"
	 xmlns="http://www.w3.org/2000/svg" xmlns:xlink="http://www.w3.org/1999/xlink" x="0px" y="0px"
	 viewBox="0 0 93 73" overflow="visible" xml:space="preserve">
<path fill="#94E6F9" d="M83.7,7.5c-7.8-3.9-23.8,0.6-41.3,12.7C19,36.3,1.7,59.8,3.8,72.6c0,0.1,0,0.3,0.1,0.4
	H3.8c-1.3-4.2-1.5-5-2.2-8.7c-0.2-2-0.5-4.6-0.7-6.6C0.6,46.2,15.2,26.9,34.8,13.5C48.4,4.1,60.9-0.1,68.3,1.5
	c1.4,0.4,3.2,0.8,4.5,1.2C77.7,4.5,79.1,5,83.7,7.5z"/>
<path fill="#94E6F9" d="M12.9,73C18.2,59.6,33,42.6,51.3,30c17.2-11.8,33-16.8,41.7-14v11.9
	c-8.6,0.9-20,5.7-32.2,14.1C47.6,51,36.3,62.4,29.3,73H12.9z"/>
<path fill="#94E6F9" d="M48.6,73c5.7-6.5,12.9-12.9,20.9-18.4C78.1,48.7,86.2,44.8,93,43v15.7
	c-7.3,2.6-15.9,7.8-23.5,14.3H48.6z"/>
<path fill="#94E6F9" d="M3.1,40l0.3-1.1c1.3-3.9,1.5-4.3,2.8-7.1c1.6-3.2,1.7-3.3,2.8-5.2
	c1.7-2.6,1.7-2.6,2.7-4c1.6-2.2,1.6-2.2,2.5-3.2l0.9-1c2.7-3.1,6.1-6.1,9.9-8.6c0.8-0.5,1.5-1,2.2-1.5l0.9-0.5
	c2.4-1.3,2.4-1.4,3.7-2c2.7-1.2,2.8-1.3,4.4-1.9c3.2-1.1,3.4-1.2,5.6-1.8c3.7-0.9,4.3-1,7.3-1.4l1.4-0.2C31.6,3.2,7.8,25.1,3.1,40z"
	/>
</svg>
