<?xml version="1.0" encoding="UTF-8" standalone="no"?><!DOCTYPE svg PUBLIC "-//W3C//DTD SVG 1.1//EN" "http://www.w3.org/Graphics/SVG/1.1/DTD/svg11.dtd"><svg width="100%" height="100%" viewBox="0 0 9 9" version="1.1" xmlns="http://www.w3.org/2000/svg" xmlns:xlink="http://www.w3.org/1999/xlink" xml:space="preserve" xmlns:serif="http://www.serif.com/" style="fill-rule:evenodd;clip-rule:evenodd;stroke-linejoin:round;stroke-miterlimit:2;"><path d="M0,3l3,-3l3,0l3,3l0,3l-3,3l-3,0l-3,-3l0,-3" style="fill:url(#_Linear1);"/><path d="M1,3l2,-2l3,0l2,2l0,3l-2,2l-3,0l-2,-2l0,-3Z" style="fill:url(#_Linear2);"/><path d="M2,6l0,-3l1,-1l3,0l1,1l0,3l-1,1l-3,0l-1,-1" style="fill:url(#_Linear3);"/><defs><linearGradient id="_Linear1" x1="0" y1="0" x2="1" y2="0" gradientUnits="userSpaceOnUse" gradientTransform="matrix(6.12323e-17,-1,1,6.12323e-17,3,5)"><stop offset="0" style="stop-color:#111230;stop-opacity:1"/><stop offset="1" style="stop-color:#353898;stop-opacity:1"/></linearGradient><linearGradient id="_Linear2" x1="0" y1="0" x2="1" y2="0" gradientUnits="userSpaceOnUse" gradientTransform="matrix(6.12323e-17,-1,1,6.12323e-17,3,5)"><stop offset="0" style="stop-color:#1c3482;stop-opacity:1"/><stop offset="1" style="stop-color:#58a4d8;stop-opacity:1"/></linearGradient><linearGradient id="_Linear3" x1="0" y1="0" x2="1" y2="0" gradientUnits="userSpaceOnUse" gradientTransform="matrix(6.12323e-17,-1,1,6.12323e-17,3,5)"><stop offset="0" style="stop-color:#111230;stop-opacity:1"/><stop offset="1" style="stop-color:#353898;stop-opacity:1"/></linearGradient></defs></svg>