<?xml version="1.0" encoding="utf-8"?>
<!-- Generator: Adobe Illustrator 25.0.0, SVG Export Plug-In . SVG Version: 6.00 Build 0)  -->
<svg version="1.2" baseProfile="tiny" id="Layer_1" xmlns="http://www.w3.org/2000/svg" xmlns:xlink="http://www.w3.org/1999/xlink"
	 x="0px" y="0px" width="63px" height="55px" viewBox="0 0 63 55" overflow="visible" xml:space="preserve">
<g>
	<g>
		<g>
			<path fill="#050507" d="M61.4,17.9c-0.8-0.8-1.8-1.3-2.9-1.3c-0.2,0-0.4,0-0.6,0c-0.1,0-0.7,0.1-1.4,0.3
				c-2.1-3.3-5.4-5.7-9.3-6.8c-2.4-0.9-4.8-1.4-7.3-1.5l-1.7-5.5c-0.5-1.7-2.1-2.8-3.8-2.8h-5.7C25,0.4,22,3.4,22,7
				c0,1.1,0.3,2.1,0.7,3c-1.9,1-3.2,3.1-3.3,5.4h-6.8c-3.8,0-6.8,3.1-6.8,6.8c0,0.7,0.1,1.5,0.3,2.1c-3.2,0.4-5.7,3.2-5.7,6.5
				c0,3.6,3,6.6,6.7,6.6c0,0,4.3,0,4.4,0c1.3,0,2.6-0.4,3.6-1.1c0.2,0.1,0.4,0.2,0.5,0.3c-1.5,1.1-2.5,2.9-2.5,4.9
				c0,0.5,0.1,0.9,0.1,1.3c-2.6,0.5-4.6,2.9-4.6,5.6c0,3.2,2.6,5.8,5.8,5.8h5.4c0.9,0,1.7-0.3,2.4-0.8l12-9.1l12,9.1
				c0.7,0.5,1.6,0.8,2.4,0.8c0.8,0,1.6-0.2,2.3-0.7c1.4-1,2-2.8,1.5-4.5l-1.7-5.5c2.2-1.2,3.5-3.7,3.6-3.8c0.6-1.2,0.8-2.7,1-3.9
				c2-2.4,3.2-5.3,3.6-8.3c0.3-0.3,0.5-0.6,0.8-0.8c2-2.6,2.6-4.8,2.7-5.3C62.7,20.2,62.3,18.9,61.4,17.9z"/>
		</g>
	</g>
	<g>
		<path fill="#EEEEEE" d="M54.4,21.9c-1.3-4-4.6-6.9-8.5-8c-3.4-1.3-7.1-1.7-10.7-0.9c-3.3,0.7-6.1,2.3-8.4,4.5
			c1.4,0.8,3,1.5,4.7,1.9c-2.2,2.2-3.7,4.8-4.4,7.6c1.2,0,2.5-0.1,3.7-0.4c0,0.5,0.1,1.1,0.2,1.6c1.4,6.3,7.4,10.4,13.7,9.5
			c-1,2-2,4.7-1.8,5.4c0.2,0.8,2.4-1,2.9-1.6c0.6-0.9,1.2-2.8,1.4-4.4c0.5-0.2,0.9-0.4,1.4-0.6c-0.4,1.6-0.6,3.3-0.4,3.8
			c0.3,0.7,2.2-1.3,2.6-2c0.4-0.8,0.6-2.4,0.7-3.8c2.3-2.3,3.6-5.4,3.6-8.7c0.6-0.4,1.2-0.9,1.5-1.4c1.6-2,1.9-3.6,1.9-3.6
			S56.4,21,54.4,21.9 M51.5,21.9c-0.6-0.1-2.4-2.5-2.9-3.5c-0.1-0.3-0.6-1.3-0.3-1.3c0.8-0.1,2.8,1.8,3.3,2.8
			C51.8,20.3,52,22.1,51.5,21.9"/>
		<path fill="#D1CFDC" d="M52.4,33.3c-1,1-2,1.1-3.1,0.8c-9-2.5-15.6-9.9-15.6-18.5c0-0.6,0-1.1,0.1-1.7c0,0,0,0,0,0
			c-0.2-0.2-0.1,0.6-0.8,0.8c-2.1,0.6-4.7,1.9-6.1,2.8c1.4,0.8,3,1.5,4.7,1.9c0.8,0.5,1.6,0.4,0.3,1.6c-3.5,3.2-4.6,6-4.6,6
			c1.2,0,2.4-0.1,3.6-0.4c0,0.5,0.1,1.1,0.2,1.6c1.2,5.7,6.3,9.6,11.9,9.6c0.6,0,1.2,0,1.8-0.1c-1,2-2,4.7-1.8,5.4
			c0,0.1,0.1,0.2,0.3,0.2c0.7,0,2.2-1.3,2.6-1.8c0.6-0.9,1.2-2.8,1.4-4.4c0.5-0.2,0.9-0.4,1.4-0.6c-0.4,1.6-0.6,3.3-0.4,3.8
			c0.1,0.1,0.1,0.2,0.2,0.2c0.6,0,2-1.6,2.3-2.2c0.4-0.7,0.6-2.2,0.6-3.5c0,0,0,0,0,0c0-0.1,0-0.2,0-0.3
			C51.8,34,52.1,33.6,52.4,33.3z M49.4,34.2c0.1,0,0.2,0,0.3,0.1C49.6,34.2,49.5,34.2,49.4,34.2z"/>
	</g>
</g>
<g>
	<path fill="#EEEEEE" d="M24.4,17.2c0.1-0.5,0.3-1,0.7-1.4c1-1,2-1.8,3.2-2.5h-2.6c-1.2,0-2.1,1-2.1,2.1
		C23.5,16.2,23.9,16.8,24.4,17.2z"/>
	<path fill="#EEEEEE" d="M28.6,9.6h2.5l0,0c0.9,0,1.6,0.7,1.8,1.5c0.6-0.2,1.2-0.4,1.8-0.5c0.5-0.1,1-0.2,1.5-0.3l-1.9-6h-5.7
		C27.2,4.4,26,5.6,26,7C26,8.4,27.2,9.6,28.6,9.6z"/>
	<path fill="#EEEEEE" d="M43.1,45.8c-0.2,0-0.3,0-0.5,0c0,0,0,0,0,0l6.1,4.6l-2-6.3C45.8,44.9,44.5,45.8,43.1,45.8z"/>
	<path fill="#EEEEEE" d="M14.1,30.9c0-1.4-1.2-2.6-2.6-2.6c-0.1,0-0.2,0-0.2,0v0H7.2v0c0,0,0,0-0.1,0c-1.4,0-2.6,1.2-2.6,2.6
		c0,1.4,1.2,2.6,2.6,2.6c0,0,0.1,0,0.1,0h4.1v0c0.1,0,0.2,0,0.2,0C13,33.5,14.1,32.4,14.1,30.9z"/>
	<path fill="#EEEEEE" d="M40.5,43.8c-0.3-0.9,0-2.2,0.4-3.6c-5.7-0.8-10.6-4.9-12.2-10.7c-0.5,0-1.1,0.1-1.6,0.1c-0.8,0-1.5-0.4-2-1
		c-0.5-0.6-0.6-1.4-0.4-2.2c0.6-2.1,1.5-4,2.6-5.8c-0.6-0.3-1.2-0.6-1.7-0.9c-0.2-0.1-0.3-0.2-0.4-0.3H12.7c-1.6,0-2.8,1.3-2.8,2.8
		c0,1.6,1.3,2.8,2.8,2.8h2.5h6.3c0.9,0,1.7,0.8,1.7,1.7c0,0.7-0.4,1.3-1,1.5h-3.5c-1.4,0-2.6,1.2-2.6,2.6c0,1.4,1.2,2.6,2.6,2.6h4.5
		c1.7,0,3.1,1.4,3.1,3.1c0,1.7-1.4,3.1-3.1,3.1h-0.1h-4.1c-1.1,0-2,0.9-2,2c0,1.1,0.9,2,2,2h0.7c0.9,0,1.6,0.7,1.6,1.6
		c0,0.9-0.7,1.6-1.6,1.6h-5.3c-1,0-1.8,0.8-1.8,1.8c0,1,0.8,1.8,1.8,1.8h5.4l14.4-10.9l6.4,4.8C40.6,44.2,40.5,44,40.5,43.8z"/>
</g>
</svg>
