<?xml version="1.0" encoding="utf-8"?>
<!-- Generator: Adobe Illustrator 24.2.3, SVG Export Plug-In . SVG Version: 6.00 Build 0)  -->
<svg version="1.2" baseProfile="tiny" id="Calque_1"
	 xmlns="http://www.w3.org/2000/svg" xmlns:xlink="http://www.w3.org/1999/xlink" x="0px" y="0px" width="70px" height="69px"
	 viewBox="0 0 70 69" overflow="visible" xml:space="preserve">
<path fill="#94E6F9" d="M52.3,58.7l0.9-4.3c0.1-0.6,0.6-1.1,1.2-1.2l4.3-0.9l-14-7.7L52.3,58.7z"/>
<path fill="#94E6F9" d="M70,17c-2.1-0.3-4.3-0.5-6.5-0.5c-12.3,0-23.4,4.7-31.8,12.4l2.7,2.7c0.8,0.8,0.8,2,0,2.8C34,34.8,33.5,35,33,35
	s-1-0.2-1.4-0.6l-2.7-2.7c-7.7,8.4-12.4,19.5-12.4,31.8c0,1.9,0.1,3.7,0.3,5.5H70V17z M54.5,63.3c-0.1,0.6-0.6,1.1-1.2,1.2
	c-0.1,0-0.2,0-0.2,0c-0.5,0-1-0.3-1.3-0.8L39.6,41.6c-0.3-0.6-0.2-1.3,0.3-1.8c0.5-0.5,1.2-0.6,1.8-0.3l22.1,12.1
	c0.6,0.3,0.9,0.9,0.8,1.5c-0.1,0.6-0.6,1.1-1.2,1.2L56,56L54.5,63.3z M63,67c-2.2,0-4-1.8-4-4c0-2.2,1.8-4,4-4s4,1.8,4,4
	C67,65.2,65.2,67,63,67z"/>
<path fill="#94E6F9" d="M6,63.5C6,31.8,31.8,6,63.5,6c2.2,0,4.4,0.1,6.5,0.4v-5C67.9,1.1,65.7,1,63.5,1C29,1,1,29,1,63.5c0,1.9,0.1,3.7,0.3,5.5h5
	C6.1,67.2,6,65.4,6,63.5z"/>
</svg>
