<?xml version="1.0" encoding="utf-8"?>
<!-- Generator: Adobe Illustrator 24.2.3, SVG Export Plug-In . SVG Version: 6.00 Build 0)  -->
<svg width="67px" height="78px" version="1.2" baseProfile="tiny" id="Calque_1"
	 xmlns="http://www.w3.org/2000/svg" xmlns:xlink="http://www.w3.org/1999/xlink" x="0px" y="0px" viewBox="0 0 67 78"
	 overflow="visible" xml:space="preserve">
<path fill="#94E6F9" d="M65,45c0.7,0,1.4-0.1,2-0.2V27.2c-0.6-0.1-1.3-0.2-2-0.2c-0.9,0-1.8,0.1-2.7,0.4l-4.7-8.2
	c0.6-0.6,1.2-1.3,1.7-2.1c2.1-3.7,1.3-8.3-1.7-11.1l3.5-6h-4.6l-2.3,4c-3.9-1.2-8.3,0.4-10.4,4.1c-0.5,0.8-0.8,1.6-1,2.5h-9.4
	c-0.2-0.9-0.5-1.7-1-2.5C30.2,4.4,25.8,2.8,21.8,4l-2.3-4h-4.6l3.5,6c-3,2.8-3.8,7.4-1.7,11.1c0.5,0.8,1,1.5,1.7,2.1l-4.7,8.2
	C12.8,27.1,11.9,27,11,27c-4.3,0-7.9,3-8.8,7H0v4h2.2c0.9,4,4.5,7,8.8,7c0.9,0,1.8-0.1,2.7-0.4l4.7,8.2c-0.6,0.6-1.2,1.3-1.7,2.1
	c-2.1,3.7-1.3,8.3,1.7,11.1l-6.9,12h4.6l5.8-10c3.9,1.2,8.3-0.4,10.4-4.1c0.5-0.8,0.8-1.6,1-2.5h9.4c0.2,0.9,0.5,1.7,1,2.5
	c2.1,3.7,6.5,5.3,10.4,4.1l5.8,10h4.6l-6.9-12c3-2.8,3.8-7.4,1.7-11.1c-0.5-0.8-1-1.5-1.7-2.1l4.7-8.2C63.2,44.9,64.1,45,65,45z
	 M58.9,42.6l-4.7,8.2c-2.3-0.7-4.9-0.5-7.2,0.8c-2.3,1.3-3.7,3.4-4.3,5.8h-9.5c-0.5-2.4-2-4.5-4.3-5.8c-2.3-1.3-4.8-1.5-7.2-0.8
	l-4.7-8.2c1.8-1.6,2.9-4,2.9-6.6c0-2.6-1.1-4.9-2.9-6.6l4.7-8.2c2.3,0.7,4.9,0.5,7.2-0.8c2.3-1.3,3.7-3.4,4.3-5.8h9.5
	c0.5,2.4,2,4.5,4.3,5.8c2.3,1.3,4.8,1.5,7.2,0.8l4.7,8.2c-1.8,1.6-2.9,4-2.9,6.6C56,38.6,57.1,40.9,58.9,42.6z"/>
</svg>
