<?xml version="1.0" encoding="utf-8"?>
<!-- Generator: Adobe Illustrator 24.2.3, SVG Export Plug-In . SVG Version: 6.00 Build 0)  -->
<svg version="1.2" baseProfile="tiny" xmlns="http://www.w3.org/2000/svg" xmlns:xlink="http://www.w3.org/1999/xlink" x="0px"
	 y="0px" width="58px" height="58px" viewBox="0 0 58 58" overflow="visible" xml:space="preserve">
<g id="Calque_1">
</g>
<g id="Calque_2">
	<path fill="#94E6F9" d="M58,51.8c-1.3-3.3-4.6-5.7-8.4-5.7c-5,0-9,4-9,9c0,1,0.2,2,0.5,2.9H58V51.8z"/>
	<path fill="#94E6F9" d="M46.1,34.1c-9.7,0-17.5,7.8-17.5,17.5c0,2.3,0.4,4.4,1.2,6.4h2.5c-0.2-0.9-0.2-1.9-0.2-2.9
		c0-9.7,7.8-17.5,17.5-17.5c3,0,5.9,0.8,8.4,2.2v-1C54.9,35.9,50.7,34.1,46.1,34.1z"/>
	<path fill="#94E6F9" d="M42.1,19.6c-15.4,0-28,12.5-28,28c0,3.7,0.7,7.2,2,10.4h3.4c-0.4-1.8-0.6-3.6-0.6-5.5c0-15.4,12.5-28,28-28
		c3.9,0,7.6,0.8,11,2.3v-2.2C53.5,21.5,48,19.6,42.1,19.6z"/>
	<path fill="#94E6F9" d="M37.7,6.7C17.5,6.7,1.2,23,1.2,43.2c0,5.3,1.1,10.3,3.1,14.8h2.9c-0.9-3.3-1.5-6.7-1.5-10.3
		c0-20.2,16.4-36.6,36.6-36.6c5.6,0,11,1.3,15.8,3.6v-1.9C52.2,8.9,45.2,6.7,37.7,6.7z"/>
</g>
</svg>
