<?xml version="1.0" encoding="UTF-8" standalone="no"?><!DOCTYPE svg PUBLIC "-//W3C//DTD SVG 1.1//EN" "http://www.w3.org/Graphics/SVG/1.1/DTD/svg11.dtd"><svg width="100%" height="100%" viewBox="0 0 184 96" version="1.1" xmlns="http://www.w3.org/2000/svg" xmlns:xlink="http://www.w3.org/1999/xlink" xml:space="preserve" xmlns:serif="http://www.serif.com/" style="fill-rule:evenodd;clip-rule:evenodd;stroke-linecap:round;stroke-linejoin:round;stroke-miterlimit:1.5;"><g id="Rooms"><rect id="Rear-Bravo-Turret" serif:id="Rear Bravo Turret" x="159" y="73" width="12" height="12" style="fill:#133951;stroke:#1d5f80;stroke-width:2px;"/><path id="Engine-Room" serif:id="Engine Room" d="M183,28.005l-2,1.241l0,5.553l2,1.242l0,7.941l-2,1.241l0,5.554l2,1.241l0,7.941l-2,1.242l0,5.553l2,1.241l0,5.005l-34,0l0,-50l34,0l0,5.005Z" style="fill:#133951;stroke:#1d5f80;stroke-width:2px;"/><rect id="Rear-Alpha-Turret" serif:id="Rear Alpha Turret" x="159" y="11" width="12" height="12" style="fill:#133951;stroke:#1d5f80;stroke-width:2px;"/><rect id="Icarus-Bay" serif:id="Icarus Bay" x="125" y="73" width="34" height="22" style="fill:#133951;stroke:#1d5f80;stroke-width:2px;"/><rect id="Rear-Bravo-Storage" serif:id="Rear Bravo Storage" x="125" y="61" width="24" height="12" style="fill:#133951;stroke:#1d5f80;stroke-width:2px;"/><rect id="Rear-Alpha-Storage" serif:id="Rear Alpha Storage" x="125" y="23" width="24" height="12" style="fill:#133951;stroke:#1d5f80;stroke-width:2px;"/><rect id="Rear-Corridor" serif:id="Rear Corridor" x="119" y="23" width="6" height="60" style="fill:#133951;stroke:#1d5f80;stroke-width:2px;"/><rect id="Alpha-Bay-2" serif:id="Alpha Bay 2" x="117" y="1" width="42" height="22" style="fill:#133951;stroke:#1d5f80;stroke-width:2px;"/><path id="Bravo-Dorm" serif:id="Bravo Dorm" d="M119,73l-20,0l0,-14l6,0l0,-4l14,0l0,18Z" style="fill:#133951;stroke:#1d5f80;stroke-width:2px;"/><rect id="Nexus" x="105" y="41" width="14" height="14" style="fill:#133951;stroke:#1d5f80;stroke-width:2px;"/><path id="Alpha-Dorm" serif:id="Alpha Dorm" d="M119,23l-20,0l0,14l6,0l0,4l14,0l0,-18Z" style="fill:#133951;stroke:#1d5f80;stroke-width:2px;"/><rect id="Centre-Bravo-Storage" serif:id="Centre Bravo Storage" x="83" y="59" width="16" height="14" style="fill:#133951;stroke:#1d5f80;stroke-width:2px;"/><rect id="Refectory" x="83" y="37" width="22" height="22" style="fill:#133951;stroke:#1d5f80;stroke-width:2px;"/><rect id="Centre-Alpha-Storage" serif:id="Centre Alpha Storage" x="83" y="23" width="16" height="14" style="fill:#133951;stroke:#1d5f80;stroke-width:2px;"/><rect id="Bravo-Bay" serif:id="Bravo Bay" x="75" y="73" width="44" height="22" style="fill:#133951;stroke:#1d5f80;stroke-width:2px;"/><rect id="Centre-Corridor" serif:id="Centre Corridor" x="77" y="23" width="6" height="50" style="fill:#133951;stroke:#1d5f80;stroke-width:2px;"/><rect id="Alpha-Bay" serif:id="Alpha Bay" x="75" y="1" width="42" height="22" style="fill:#133951;stroke:#1d5f80;stroke-width:2px;"/><rect id="Centre-Bravo-Turret" serif:id="Centre Bravo Turret" x="63" y="73" width="12" height="12" style="fill:#133951;stroke:#1d5f80;stroke-width:2px;"/><rect id="Medlab" x="54.983" y="51" width="22" height="22" style="fill:#133951;stroke:#1d5f80;stroke-width:2px;"/><rect id="Front-Storage" serif:id="Front Storage" x="55" y="23" width="22" height="22" style="fill:#133951;stroke:#1d5f80;stroke-width:2px;"/><rect id="Centre-Alpha-Turret" serif:id="Centre Alpha Turret" x="63" y="11" width="12" height="12" style="fill:#133951;stroke:#1d5f80;stroke-width:2px;"/><rect id="Laboratory" x="33" y="51" width="22" height="22" style="fill:#133951;stroke:#1d5f80;stroke-width:2px;"/><rect id="Hydroponic-Garden" serif:id="Hydroponic Garden" x="33" y="23" width="22" height="22" style="fill:#133951;stroke:#1d5f80;stroke-width:2px;"/><path id="Front-Corridor" serif:id="Front Corridor" d="M33,71l-6,0l0,-46l6,0l0,20l44,0l0,6l-44,0l0,20Z" style="fill:#133951;stroke:#1d5f80;stroke-width:2px;"/><rect id="Front-Bravo-Turret" serif:id="Front Bravo Turret" x="15" y="61" width="12" height="12" style="fill:#133951;stroke:#1d5f80;stroke-width:2px;"/><path id="Bridge" d="M6,42.121l0,-7.121l21,0l0,26l-21,0l0,-7.121l-5,-3.102l0,-5.554l5,-3.102Z" style="fill:#133951;stroke:#1d5f80;stroke-width:2px;"/><rect id="Front-Alpha-Turret" serif:id="Front Alpha Turret" x="15" y="23" width="12" height="12" style="fill:#133951;stroke:#1d5f80;stroke-width:2px;"/></g><g id="Doors"><path id="Engine-Room---Rear-Bravo-Turret" serif:id="Engine Room - Rear Bravo Turret" d="M162.452,73.026l3,-0" style="fill:none;stroke:#12d7ff;stroke-width:2px;"/><path id="Rear-Alpha-Turret---Engine-Room" serif:id="Rear Alpha Turret - Engine Room" d="M162.452,22.99l3,-0" style="fill:none;stroke:#12d7ff;stroke-width:2px;"/><path id="Icarus-Bay---Rear-Bravo-Turret" serif:id="Icarus Bay - Rear Bravo Turret" d="M158.967,76.522l-0,3" style="fill:none;stroke:#12d7ff;stroke-width:2px;"/><path id="Alpha-Bay-2---Rear-Alpha-Turret" serif:id="Alpha Bay 2 - Rear Alpha Turret" d="M158.967,16.5l-0,3" style="fill:none;stroke:#12d7ff;stroke-width:2px;"/><path id="Icarus-Bay---Engine-Room" serif:id="Icarus Bay - Engine Room" d="M152.467,73.026l3,-0" style="fill:none;stroke:#12d7ff;stroke-width:2px;"/><path id="Alpha-Bay-2---Engine-Room" serif:id="Alpha Bay 2 - Engine Room" d="M152.467,22.99l3,-0" style="fill:none;stroke:#12d7ff;stroke-width:2px;"/><path id="Rear-Bravo-Storage---Engine-Room" serif:id="Rear Bravo Storage - Engine Room" d="M148.957,64.5l0,3" style="fill:none;stroke:#12d7ff;stroke-width:2px;"/><path id="Rear-Alpha-Storage---Engine-Room" serif:id="Rear Alpha Storage - Engine Room" d="M148.957,27.452l0,3" style="fill:none;stroke:#12d7ff;stroke-width:2px;"/><path id="Rear-Corridor---Icarus-Bay" serif:id="Rear Corridor - Icarus Bay" d="M125.013,76.522l-0,3" style="fill:none;stroke:#12d7ff;stroke-width:2px;"/><path id="Rear-Corridor---Rear-Bravo-Storage" serif:id="Rear Corridor - Rear Bravo Storage" d="M125.013,64.5l-0,3" style="fill:none;stroke:#12d7ff;stroke-width:2px;"/><path id="Rear-Corridor---Rear-Alpha-Storage" serif:id="Rear Corridor - Rear Alpha Storage" d="M125.013,27.452l-0,3" style="fill:none;stroke:#12d7ff;stroke-width:2px;"/><path id="Alpha-Bay-2---Rear-Corridor" serif:id="Alpha Bay 2 - Rear Corridor" d="M120.469,22.99l3,-0" style="fill:none;stroke:#12d7ff;stroke-width:2px;"/><path id="Bravo-Bay---Rear-Corridor" serif:id="Bravo Bay - Rear Corridor" d="M119,76.522l0,3" style="fill:none;stroke:#12d7ff;stroke-width:2px;"/><path id="Bravo-Dorm---Rear-Corridor" serif:id="Bravo Dorm - Rear Corridor" d="M119,64.5l0,3" style="fill:none;stroke:#12d7ff;stroke-width:2px;"/><path id="Nexus---Rear-Corridor" serif:id="Nexus - Rear Corridor" d="M118.97,46.5l0,3" style="fill:none;stroke:#12d7ff;stroke-width:2px;"/><path id="Alpha-Dorm---Rear-Corridor" serif:id="Alpha Dorm - Rear Corridor" d="M119,27.452l0,3" style="fill:none;stroke:#12d7ff;stroke-width:2px;"/><path id="Alpha-Bay---Alpha-Bay-2" serif:id="Alpha Bay - Alpha Bay 2" d="M116.983,16.5l0,3" style="fill:none;stroke:#12d7ff;stroke-width:2px;"/><path id="Bravo-Bay---Bravo-Dorm" serif:id="Bravo Bay - Bravo Dorm" d="M102.538,73.026l3,-0" style="fill:none;stroke:#12d7ff;stroke-width:2px;"/><path id="Alpha-Bay---Alpha-Dorm" serif:id="Alpha Bay - Alpha Dorm" d="M102.538,22.99l3,-0" style="fill:none;stroke:#12d7ff;stroke-width:2px;"/><path id="Bravo-Bay---Centre-Bravo-Storage" serif:id="Bravo Bay - Centre Bravo Storage" d="M86.539,73.026l3,-0" style="fill:none;stroke:#12d7ff;stroke-width:2px;"/><path id="Alpha-Bay---Centre-Alpha-Storage" serif:id="Alpha Bay - Centre Alpha Storage" d="M86.539,22.99l3,-0" style="fill:none;stroke:#12d7ff;stroke-width:2px;"/><path id="Centre-Corridor---Refectory" serif:id="Centre Corridor - Refectory" d="M83,46.5l0,3" style="fill:none;stroke:#12d7ff;stroke-width:2px;"/><path id="Centre-Corridor---Bravo-Bay" serif:id="Centre Corridor - Bravo Bay" d="M78.486,73.026l3,-0" style="fill:none;stroke:#12d7ff;stroke-width:2px;"/><path id="Alpha-Bay---Centre-Corridor" serif:id="Alpha Bay - Centre Corridor" d="M78.486,22.99l3,-0" style="fill:none;stroke:#12d7ff;stroke-width:2px;"/><path id="Front-Corridor---Centre-Corridor" serif:id="Front Corridor - Centre Corridor" d="M77.036,46.5l0,3" style="fill:none;stroke:#12d7ff;stroke-width:2px;"/><path id="Centre-Bravo-Turret---Bravo-Bay" serif:id="Centre Bravo Turret - Bravo Bay" d="M75,76.522l0,3" style="fill:none;stroke:#12d7ff;stroke-width:2px;"/><path id="Centre-Alpha-Turret----Alpha-Bay" serif:id="Centre Alpha Turret -  Alpha Bay" d="M75,16.5l0,3" style="fill:none;stroke:#12d7ff;stroke-width:2px;"/><path id="Medlab---Centre-Bravo-Turret" serif:id="Medlab - Centre Bravo Turret" d="M68.5,73.026l3,-0" style="fill:none;stroke:#12d7ff;stroke-width:2px;"/><path id="Centre-Alpha-Turret---Front-Storage" serif:id="Centre Alpha Turret - Front Storage" d="M68.5,22.99l3,-0" style="fill:none;stroke:#12d7ff;stroke-width:2px;"/><path id="Front-Corridor---Medlab" serif:id="Front Corridor - Medlab" d="M58.51,51.014l3,0" style="fill:none;stroke:#12d7ff;stroke-width:2px;"/><path id="Front-Corridor---Front-Storage" serif:id="Front Corridor - Front Storage" d="M58.51,45.001l3,0" style="fill:none;stroke:#12d7ff;stroke-width:2px;"/><path id="Laboratory---Medlab" serif:id="Laboratory - Medlab" d="M55.025,54.499l-0,3" style="fill:none;stroke:#12d7ff;stroke-width:2px;"/><path id="Hydroponic-Garden---Front-Storage" serif:id="Hydroponic Garden - Front Storage" d="M55.025,38.5l-0,3" style="fill:none;stroke:#12d7ff;stroke-width:2px;"/><path id="Front-Corridor---Laboratory" serif:id="Front Corridor - Laboratory" d="M48.525,51.014l3,0" style="fill:none;stroke:#12d7ff;stroke-width:2px;"/><path id="Front-Corridor---Hydroponic-Garden" serif:id="Front Corridor - Hydroponic Garden" d="M48.525,45.001l3,0" style="fill:none;stroke:#12d7ff;stroke-width:2px;"/><path id="Front-Bravo-Turret---Front-Corridor" serif:id="Front Bravo Turret - Front Corridor" d="M27,64.539l0,3" style="fill:none;stroke:#12d7ff;stroke-width:2px;"/><path id="Bridge---Front-Corridor" serif:id="Bridge - Front Corridor" d="M27,46.5l0,3" style="fill:none;stroke:#12d7ff;stroke-width:2px;"/><path id="Front-Alpha-Turret---Front-Corridor" serif:id="Front Alpha Turret - Front Corridor" d="M27,28.5l0,3" style="fill:none;stroke:#12d7ff;stroke-width:2px;"/><path id="Bridge---Front-Bravo-Turret" serif:id="Bridge - Front Bravo Turret" d="M20.5,61l3,0" style="fill:none;stroke:#12d7ff;stroke-width:2px;"/><path id="Bridge---Front-Alpha-Turret" serif:id="Bridge - Front Alpha Turret" d="M20.5,35.015l3,0" style="fill:none;stroke:#12d7ff;stroke-width:2px;"/></g><g id="Equipment"><g id="Rear-Bravo-Turret1" serif:id="Rear Bravo Turret"><g id="Turret-Command" serif:id="Turret Command"><rect id="floor" x="164" y="78" width="6" height="6" style="fill:#ff9c00;fill-opacity:0.3;"/><path id="wall" d="M171,78l-0,7l-7,0" style="fill:none;stroke:#ff9c00;stroke-width:2px;stroke-linecap:butt;"/></g></g><g id="Engine-Room1" serif:id="Engine Room"><g id="Reactor-3" serif:id="Reactor 3"><path id="floor1" serif:id="floor" d="M179.958,67l0,-6l-6,-0l0,6l6,0Z" style="fill:#ff9c00;fill-opacity:0.3;"/><path id="wall1" serif:id="wall" d="M180.958,61l0,6" style="fill:none;stroke:#ff9c00;stroke-width:2px;stroke-linecap:butt;"/></g><g id="Reactor-2" serif:id="Reactor 2"><path id="floor2" serif:id="floor" d="M179.958,51l0,-6l-6,0l0,6l6,0Z" style="fill:#ff9c00;fill-opacity:0.3;"/><path id="wall2" serif:id="wall" d="M180.958,45l0,6" style="fill:none;stroke:#ff9c00;stroke-width:2px;stroke-linecap:butt;"/></g><g id="Reactor-1" serif:id="Reactor 1"><path id="floor3" serif:id="floor" d="M179.958,35l0,-6l-6,0l0,6l6,0Z" style="fill:#ff9c00;fill-opacity:0.3;"/><path id="wall3" serif:id="wall" d="M180.958,29l0,6" style="fill:none;stroke:#ff9c00;stroke-width:2px;stroke-linecap:butt;"/></g><g id="Planet-Scanner" serif:id="Planet Scanner"><rect id="floor4" serif:id="floor" x="170" y="68" width="6" height="4" style="fill:#ff9c00;fill-opacity:0.3;"/><path id="wall4" serif:id="wall" d="M176,73l-6,0" style="fill:none;stroke:#ff9c00;stroke-width:2px;stroke-linecap:butt;"/></g><g id="Antenna"><rect id="floor5" serif:id="floor" x="170" y="24" width="6" height="4" style="fill:#ff9c00;fill-opacity:0.3;"/><path id="wall5" serif:id="wall" d="M170,23l6,0" style="fill:none;stroke:#ff9c00;stroke-width:2px;stroke-linecap:butt;"/></g><g id="Combustion-Chamber" serif:id="Combustion Chamber"><rect id="floor6" serif:id="floor" x="158" y="58" width="8" height="8" style="fill:#ff9c00;fill-opacity:0.3;"/></g><g id="Auxiliary-NERON-Terminal" serif:id="Auxiliary NERON Terminal"><rect id="floor7" serif:id="floor" x="157" y="24" width="4" height="4" style="fill:#ff9c00;fill-opacity:0.3;"/><path id="wall6" serif:id="wall" d="M157,23l4,0" style="fill:none;stroke:#ff9c00;stroke-width:2px;stroke-linecap:butt;"/></g></g><g id="Rear-Alpha-Turret1" serif:id="Rear Alpha Turret"><g id="Turret-Command1" serif:id="Turret Command"><path id="floor8" serif:id="floor" d="M170,18l-0,-6l-6,-0l-0,6l6,-0Z" style="fill:#ff9c00;fill-opacity:0.3;"/><path id="wall7" serif:id="wall" d="M164,11l7,0l0,7" style="fill:none;stroke:#ff9c00;stroke-width:2px;stroke-linecap:butt;"/></g></g><g id="Icarus-Bay1" serif:id="Icarus Bay"><g id="Icarus"><rect id="floor9" serif:id="floor" x="130.958" y="81" width="22" height="13" style="fill:#ff9c00;fill-opacity:0.3;"/><path id="wall8" serif:id="wall" d="M152.958,95l-22,0" style="fill:none;stroke:#ff9c00;stroke-width:2px;stroke-linecap:butt;"/></g></g><g id="Rear-Bravo-Storage1" serif:id="Rear Bravo Storage"><g id="Fuel-Tank" serif:id="Fuel Tank"><rect id="floor10" serif:id="floor" x="128" y="68" width="6" height="4" style="fill:#ff9c00;fill-opacity:0.3;"/><path id="wall9" serif:id="wall" d="M134,73l-6,-0" style="fill:none;stroke:#ff9c00;stroke-width:2px;stroke-linecap:butt;"/></g></g><g id="Rear-Alpha-Storage1" serif:id="Rear Alpha Storage"><g id="Fuel-Tank1" serif:id="Fuel Tank"><rect id="floor11" serif:id="floor" x="128" y="24" width="6" height="4" style="fill:#ff9c00;fill-opacity:0.3;"/><path id="wall10" serif:id="wall" d="M128,23l6,0" style="fill:none;stroke:#ff9c00;stroke-width:2px;stroke-linecap:butt;"/></g></g><g id="Alpha-Bay-21" serif:id="Alpha Bay 2"><g id="Pasiphae"><rect id="floor12" serif:id="floor" x="146" y="2" width="10" height="14" style="fill:#ff9c00;fill-opacity:0.3;"/><path id="wall11" serif:id="wall" d="M146,1l10,0" style="fill:none;stroke:#ff9c00;stroke-width:2px;stroke-linecap:butt;"/></g><g id="Patrol-Ship-8" serif:id="Patrol Ship 8"><rect id="floor13" serif:id="floor" x="134" y="2" width="10" height="12" style="fill:#ff9c00;fill-opacity:0.3;"/><path id="wall12" serif:id="wall" d="M134,1l10,0" style="fill:none;stroke:#ff9c00;stroke-width:2px;stroke-linecap:butt;"/></g><g id="Patrol-Ship-7" serif:id="Patrol Ship 7"><rect id="floor14" serif:id="floor" x="121.958" y="2" width="10" height="12" style="fill:#ff9c00;fill-opacity:0.3;"/><path id="wall13" serif:id="wall" d="M121.958,1l10,0" style="fill:none;stroke:#ff9c00;stroke-width:2px;stroke-linecap:butt;"/></g><g id="Jukebox"><path id="floor15" serif:id="floor" d="M117.958,9l0,4l4,0l0,-4l-4,0Z" style="fill:#ff9c00;fill-opacity:0.3;"/><path id="wall14" serif:id="wall" d="M116.958,13l0,-4" style="fill:none;stroke:#ff9c00;stroke-width:2px;stroke-linecap:butt;"/></g></g><g id="Bravo-Dorm1" serif:id="Bravo Dorm"><g id="Shower"><path id="floor16" serif:id="floor" d="M100,64l0,4l4,0l0,-4l-4,0Z" style="fill:#ff9c00;fill-opacity:0.3;"/><path id="wall15" serif:id="wall" d="M99,68l0,-4" style="fill:none;stroke:#ff9c00;stroke-width:2px;stroke-linecap:butt;"/></g></g><g id="Nexus1" serif:id="Nexus"><g id="BIOS-Terminal" serif:id="BIOS Terminal"><rect id="floor17" serif:id="floor" x="111.983" y="42" width="4" height="4" style="fill:#ff9c00;fill-opacity:0.3;"/><path id="wall16" serif:id="wall" d="M111.983,41l4,0" style="fill:none;stroke:#ff9c00;stroke-width:2px;stroke-linecap:butt;"/><rect id="floor18" serif:id="floor" x="112" y="50" width="4" height="4" style="fill:#ff9c00;fill-opacity:0.3;"/><path id="wall17" serif:id="wall" d="M116,55l-4,0" style="fill:none;stroke:#ff9c00;stroke-width:2px;stroke-linecap:butt;"/></g><g id="NERON-Core" serif:id="NERON Core"><path id="floor19" serif:id="floor" d="M106,44l0,8l4,0l0,-8l-4,-0Z" style="fill:#ff9c00;fill-opacity:0.3;"/><path id="wall18" serif:id="wall" d="M105,52l0,-8" style="fill:none;stroke:#ff9c00;stroke-width:2px;stroke-linecap:butt;"/></g></g><g id="Alpha-Dorm1" serif:id="Alpha Dorm"><g id="Shower1" serif:id="Shower"><path id="floor20" serif:id="floor" d="M100,28l0,4l4,0l0,-4l-4,0Z" style="fill:#ff9c00;fill-opacity:0.3;"/><path id="wall19" serif:id="wall" d="M99,32l0,-4" style="fill:none;stroke:#ff9c00;stroke-width:2px;stroke-linecap:butt;"/></g></g><g id="Bravo-Bay1" serif:id="Bravo Bay"><g id="Patrol-Ship-6" serif:id="Patrol Ship 6"><rect id="floor21" serif:id="floor" x="103.958" y="82" width="10" height="12" style="fill:#ff9c00;fill-opacity:0.3;"/><path id="wall20" serif:id="wall" d="M113.958,95l-10,0" style="fill:none;stroke:#ff9c00;stroke-width:2px;stroke-linecap:butt;"/></g><g id="Patrol-Ship-5" serif:id="Patrol Ship 5"><rect id="floor22" serif:id="floor" x="91.958" y="82" width="10" height="12" style="fill:#ff9c00;fill-opacity:0.3;"/><path id="wall21" serif:id="wall" d="M101.958,95l-10,0" style="fill:none;stroke:#ff9c00;stroke-width:2px;stroke-linecap:butt;"/></g><g id="Patrol-Ship-4" serif:id="Patrol Ship 4"><rect id="floor23" serif:id="floor" x="80" y="82" width="10" height="12" style="fill:#ff9c00;fill-opacity:0.3;"/><path id="wall22" serif:id="wall" d="M90,95l-10,0" style="fill:none;stroke:#ff9c00;stroke-width:2px;stroke-linecap:butt;"/></g></g><g id="Centre-Bravo-Storage1" serif:id="Centre Bravo Storage"><g id="Oxygen-Tank" serif:id="Oxygen Tank"><path id="floor24" serif:id="floor" d="M98,68l-0,-6l-4,0l-0,6l4,0Z" style="fill:#ff9c00;fill-opacity:0.3;"/><path id="wall23" serif:id="wall" d="M99,62l0,6" style="fill:none;stroke:#ff9c00;stroke-width:2px;stroke-linecap:butt;"/></g></g><g id="Refectory1" serif:id="Refectory"><g id="Coffee-Machine" serif:id="Coffee Machine"><path id="floor25" serif:id="floor" d="M84,52l0,4l4,0l0,-4l-4,0Z" style="fill:#ff9c00;fill-opacity:0.3;"/><path id="wall24" serif:id="wall" d="M83,56l0,-4" style="fill:none;stroke:#ff9c00;stroke-width:2px;stroke-linecap:butt;"/></g><g id="Kitchen"><rect id="floor26" serif:id="floor" x="84" y="38" width="20" height="4" style="fill:#ff9c00;fill-opacity:0.3;"/><path id="wall25" serif:id="wall" d="M84,37l20,-0" style="fill:none;stroke:#ff9c00;stroke-width:2px;stroke-linecap:butt;"/></g></g><g id="Centre-Alpha-Storage1" serif:id="Centre Alpha Storage"><g id="Oxygen-Tank1" serif:id="Oxygen Tank"><path id="floor27" serif:id="floor" d="M84,28l0,6l4,0l0,-6l-4,0Z" style="fill:#ff9c00;fill-opacity:0.3;"/><path id="wall26" serif:id="wall" d="M83,34l0,-6" style="fill:none;stroke:#ff9c00;stroke-width:2px;stroke-linecap:butt;"/></g></g><g id="Alpha-Bay1" serif:id="Alpha Bay"><g id="Patrol-Ship-3" serif:id="Patrol Ship 3"><rect id="floor28" serif:id="floor" x="102.958" y="2" width="10" height="12" style="fill:#ff9c00;fill-opacity:0.3;"/><path id="wall27" serif:id="wall" d="M102.958,1l10,0" style="fill:none;stroke:#ff9c00;stroke-width:2px;stroke-linecap:butt;"/></g><g id="Patrol-Ship-2" serif:id="Patrol Ship 2"><rect id="floor29" serif:id="floor" x="91" y="2" width="10" height="12" style="fill:#ff9c00;fill-opacity:0.3;"/><path id="wall28" serif:id="wall" d="M91,1l10,0" style="fill:none;stroke:#ff9c00;stroke-width:2px;stroke-linecap:butt;"/></g><g id="Patrol-Ship-1" serif:id="Patrol Ship 1"><rect id="floor30" serif:id="floor" x="79" y="2" width="10" height="12" style="fill:#ff9c00;fill-opacity:0.3;"/><path id="wall29" serif:id="wall" d="M79,1l10,0" style="fill:none;stroke:#ff9c00;stroke-width:2px;stroke-linecap:butt;"/></g></g><g id="Centre-Bravo-Turret1" serif:id="Centre Bravo Turret"><g id="Turret-Command2" serif:id="Turret Command"><path id="floor31" serif:id="floor" d="M64,78l0,6l6,0l0,-6l-6,0Z" style="fill:#ff9c00;fill-opacity:0.3;"/><path id="wall30" serif:id="wall" d="M70,85l-7,-0l0,-7" style="fill:none;stroke:#ff9c00;stroke-width:2px;stroke-linecap:butt;"/></g></g><g id="Medlab1" serif:id="Medlab"><g id="Auxiliary-NERON-Terminal1" serif:id="Auxiliary NERON Terminal"><rect id="floor32" serif:id="floor" x="69.983" y="52" width="4" height="4" style="fill:#ff9c00;fill-opacity:0.3;"/><path id="wall31" serif:id="wall" d="M69.983,51l4,-0" style="fill:none;stroke:#ff9c00;stroke-width:2px;stroke-linecap:butt;"/></g><g id="Surgery-Pod" serif:id="Surgery Pod"><path id="floor33" serif:id="floor" d="M56,64l0,8l4,0l0,-8l-4,0Z" style="fill:#ff9c00;fill-opacity:0.3;"/><path id="wall32" serif:id="wall" d="M55,72l0,-8" style="fill:none;stroke:#ff9c00;stroke-width:2px;stroke-linecap:butt;"/></g></g><g id="Centre-Alpha-Turret1" serif:id="Centre Alpha Turret"><g id="Turret-Command3" serif:id="Turret Command"><rect id="floor34" serif:id="floor" x="64" y="12" width="6" height="6" style="fill:#ff9c00;fill-opacity:0.3;"/><path id="wall33" serif:id="wall" d="M63,18l0,-7l7,0" style="fill:none;stroke:#ff9c00;stroke-width:2px;stroke-linecap:butt;"/></g></g><g id="Laboratory1" serif:id="Laboratory"><g id="Mycoscan"><path id="floor35" serif:id="floor" d="M46,60l0,8l6,0l0,-8l-6,0Z" style="fill:#ff9c00;fill-opacity:0.3;"/></g><g id="Gravity-Simulator" serif:id="Gravity Simulator"><rect id="floor36" serif:id="floor" x="42" y="52" width="4" height="4" style="fill:#ff9c00;fill-opacity:0.3;"/><path id="wall34" serif:id="wall" d="M41.983,51l4,-0" style="fill:none;stroke:#ff9c00;stroke-width:2px;stroke-linecap:butt;"/></g><g id="Research-Lab" serif:id="Research Lab"><path id="floor37" serif:id="floor" d="M34,64l0,8l4,0l0,-8l-4,0Z" style="fill:#ff9c00;fill-opacity:0.3;"/><path id="wall35" serif:id="wall" d="M33,72l-0,-8" style="fill:none;stroke:#ff9c00;stroke-width:2px;stroke-linecap:butt;"/></g></g><g id="Bridge1" serif:id="Bridge"><g id="AstroTerminal"><path id="floor38" serif:id="floor" d="M7,54l0,6l9,-0l-0,-6l-9,-0Z" style="fill:#ff9c00;fill-opacity:0.3;"/><path id="wall36" serif:id="wall" d="M16,61l-10,-0l0,-7" style="fill:none;stroke:#ff9c00;stroke-width:2px;stroke-linecap:butt;"/></g><g id="Command-Terminal" serif:id="Command Terminal"><path id="floor39" serif:id="floor" d="M2,44l0,8l12,0l0,-8l-12,0Z" style="fill:#ff9c00;fill-opacity:0.3;"/><path id="wall37" serif:id="wall" d="M1,52l-0,-8" style="fill:none;stroke:#ff9c00;stroke-width:2px;stroke-linecap:butt;"/></g><g id="Comms-Center" serif:id="Comms Center"><rect id="floor40" serif:id="floor" x="7" y="36" width="9" height="6" style="fill:#ff9c00;fill-opacity:0.3;"/><path id="wall38" serif:id="wall" d="M6,42l0,-7l10,-0" style="fill:none;stroke:#ff9c00;stroke-width:2px;stroke-linecap:butt;"/></g><g id="Front-BravoTurret" serif:id="Front BravoTurret"><g id="Turret-Command4" serif:id="Turret Command"><path id="floor41" serif:id="floor" d="M16,66l-0,6l6,0l-0,-6l-6,0Z" style="fill:#ff9c00;fill-opacity:0.3;"/><path id="wall39" serif:id="wall" d="M22,73l-7,0l-0,-7" style="fill:none;stroke:#ff9c00;stroke-width:2px;stroke-linecap:butt;"/></g></g></g><g id="Front-Alpha-Turret1" serif:id="Front Alpha Turret"><g id="Turret-Command5" serif:id="Turret Command"><rect id="floor42" serif:id="floor" x="16" y="24" width="6" height="6" style="fill:#ff9c00;fill-opacity:0.3;"/><path id="wall40" serif:id="wall" d="M15,30l0,-7l7,-0" style="fill:none;stroke:#ff9c00;stroke-width:2px;stroke-linecap:butt;"/></g></g></g><g id="Cameras"><g id="Rear-Bravo-Turret2" serif:id="Rear Bravo Turret"><g id="cam"><path d="M162,76l4,4" style="fill:none;stroke:#ffce80;stroke-width:1.8px;"/><path d="M162,80l4,-4" style="fill:none;stroke:#ffce80;stroke-width:1.8px;"/></g></g><g id="Engine-Room2" serif:id="Engine Room"><g id="cam1" serif:id="cam"><path d="M162,46l4,4" style="fill:none;stroke:#ffce80;stroke-width:1.8px;"/><path d="M162,50l4,-4" style="fill:none;stroke:#ffce80;stroke-width:1.8px;"/></g></g><g id="Rear-Alpha-Turret2" serif:id="Rear Alpha Turret"><g id="cam2" serif:id="cam"><path d="M162,16l4,4" style="fill:none;stroke:#ffce80;stroke-width:1.8px;"/><path d="M162,20l4,-4" style="fill:none;stroke:#ffce80;stroke-width:1.8px;"/></g></g><g id="Icarus-Bay2" serif:id="Icarus Bay"><g id="cam3" serif:id="cam"><path d="M140,77l4,4" style="fill:none;stroke:#ffce80;stroke-width:1.8px;"/><path d="M140,81l4,-4" style="fill:none;stroke:#ffce80;stroke-width:1.8px;"/></g></g><g id="Rear-Bravo-Storage2" serif:id="Rear Bravo Storage"><g id="cam4" serif:id="cam"><path d="M137,65l4,4" style="fill:none;stroke:#ffce80;stroke-width:1.8px;"/><path d="M137,69l4,-4" style="fill:none;stroke:#ffce80;stroke-width:1.8px;"/></g></g><g id="Rear-Alpha-Storage2" serif:id="Rear Alpha Storage"><g id="cam5" serif:id="cam"><path d="M137,27l4,4" style="fill:none;stroke:#ffce80;stroke-width:1.8px;"/><path d="M137,31l4,-4" style="fill:none;stroke:#ffce80;stroke-width:1.8px;"/></g></g><g id="Rear-Corridor1" serif:id="Rear Corridor"><g id="cam6" serif:id="cam"><path d="M120,39l4,4" style="fill:none;stroke:#ffce80;stroke-width:1.8px;"/><path d="M120,43l4,-4" style="fill:none;stroke:#ffce80;stroke-width:1.8px;"/></g></g><g id="Alpha-Bay-22" serif:id="Alpha Bay 2"><g id="cam7" serif:id="cam"><path d="M137,14l4,4" style="fill:none;stroke:#ffce80;stroke-width:1.8px;"/><path d="M137,18l4,-4" style="fill:none;stroke:#ffce80;stroke-width:1.8px;"/></g></g><g id="Bravo-Dorm2" serif:id="Bravo Dorm"><g id="cam8" serif:id="cam"><path d="M108,62l4,4" style="fill:none;stroke:#ffce80;stroke-width:1.8px;"/><path d="M108,66l4,-4" style="fill:none;stroke:#ffce80;stroke-width:1.8px;"/></g></g><g id="Nexus2" serif:id="Nexus"><g id="cam9" serif:id="cam"><path d="M109.962,46l4,4" style="fill:none;stroke:#ffce80;stroke-width:1.8px;"/><path d="M109.962,50l4,-4" style="fill:none;stroke:#ffce80;stroke-width:1.8px;"/></g></g><g id="Alpha-Dorm2" serif:id="Alpha Dorm"><g id="cam10" serif:id="cam"><path d="M109,29l4,4" style="fill:none;stroke:#ffce80;stroke-width:1.8px;"/><path d="M109,33l4,-4" style="fill:none;stroke:#ffce80;stroke-width:1.8px;"/></g></g><g id="Centre-Bravo-Storage2" serif:id="Centre Bravo Storage"><g id="cam11" serif:id="cam"><path d="M89,64l4,4" style="fill:none;stroke:#ffce80;stroke-width:1.8px;"/><path d="M89,68l4,-4" style="fill:none;stroke:#ffce80;stroke-width:1.8px;"/></g></g><g id="Refectory2" serif:id="Refectory"><g id="cam12" serif:id="cam"><path d="M92,46l4,4" style="fill:none;stroke:#ffce80;stroke-width:1.8px;"/><path d="M92,50l4,-4" style="fill:none;stroke:#ffce80;stroke-width:1.8px;"/></g></g><g id="Centre-Alpha-Storage2" serif:id="Centre Alpha Storage"><g id="cam13" serif:id="cam"><path d="M89,28l4,4" style="fill:none;stroke:#ffce80;stroke-width:1.8px;"/><path d="M89,32l4,-4" style="fill:none;stroke:#ffce80;stroke-width:1.8px;"/></g></g><g id="Bravo-Bay2" serif:id="Bravo Bay"><g id="cam14" serif:id="cam"><path d="M95,78l4,4" style="fill:none;stroke:#ffce80;stroke-width:1.8px;"/><path d="M95,82l4,-4" style="fill:none;stroke:#ffce80;stroke-width:1.8px;"/></g></g><g id="Centre-Corridor1" serif:id="Centre Corridor"><g id="cam15" serif:id="cam"><path d="M78,39l4,4" style="fill:none;stroke:#ffce80;stroke-width:1.8px;"/><path d="M78,43l4,-4" style="fill:none;stroke:#ffce80;stroke-width:1.8px;"/></g></g><g id="Alpha-Bay2" serif:id="Alpha Bay"><g id="cam16" serif:id="cam"><path d="M94,14l4,4" style="fill:none;stroke:#ffce80;stroke-width:1.8px;"/><path d="M94,18l4,-4" style="fill:none;stroke:#ffce80;stroke-width:1.8px;"/></g></g><g id="Centre-Bravo-Turret2" serif:id="Centre Bravo Turret"><g id="cam17" serif:id="cam"><path d="M68,76l4,4" style="fill:none;stroke:#ffce80;stroke-width:1.8px;"/><path d="M68,80l4,-4" style="fill:none;stroke:#ffce80;stroke-width:1.8px;"/></g></g><g id="Medlab2" serif:id="Medlab"><g id="cam18" serif:id="cam"><path d="M63.983,60l4,4" style="fill:none;stroke:#ffce80;stroke-width:1.8px;"/><path d="M63.983,64l4,-4" style="fill:none;stroke:#ffce80;stroke-width:1.8px;"/></g></g><g id="Front-Storage1" serif:id="Front Storage"><g id="cam19" serif:id="cam"><path d="M64,32l4,4" style="fill:none;stroke:#ffce80;stroke-width:1.8px;"/><path d="M64,36l4,-4" style="fill:none;stroke:#ffce80;stroke-width:1.8px;"/></g></g><g id="Centre-Alpha-Turret2" serif:id="Centre Alpha Turret"><g id="cam20" serif:id="cam"><path d="M68,16l4,4" style="fill:none;stroke:#ffce80;stroke-width:1.8px;"/><path d="M68,20l4,-4" style="fill:none;stroke:#ffce80;stroke-width:1.8px;"/></g></g><g id="Laboratory2" serif:id="Laboratory"><g id="cam21" serif:id="cam"><path d="M40,59l4,4" style="fill:none;stroke:#ffce80;stroke-width:1.8px;"/><path d="M40,63l4,-4" style="fill:none;stroke:#ffce80;stroke-width:1.8px;"/></g></g><g id="Hydroponic-Garden1" serif:id="Hydroponic Garden"><g id="cam22" serif:id="cam"><path d="M42,32l4,4" style="fill:none;stroke:#ffce80;stroke-width:1.8px;"/><path d="M42,36l4,-4" style="fill:none;stroke:#ffce80;stroke-width:1.8px;"/></g></g><g id="Front-Corridor1" serif:id="Front Corridor"><g id="cam23" serif:id="cam"><path d="M30,46l4,4" style="fill:none;stroke:#ffce80;stroke-width:1.8px;"/><path d="M30,50l4,-4" style="fill:none;stroke:#ffce80;stroke-width:1.8px;"/></g></g><g id="Front-Bravo-Turret1" serif:id="Front Bravo Turret"><g id="cam24" serif:id="cam"><path d="M20,64l4,4" style="fill:none;stroke:#ffce80;stroke-width:1.8px;"/><path d="M20,68l4,-4" style="fill:none;stroke:#ffce80;stroke-width:1.8px;"/></g></g><g id="Bridge2" serif:id="Bridge"><g id="cam25" serif:id="cam"><path d="M17,46l4,4" style="fill:none;stroke:#ffce80;stroke-width:1.8px;"/><path d="M17,50l4,-4" style="fill:none;stroke:#ffce80;stroke-width:1.8px;"/></g></g><g id="Front-Alpha-Turret2" serif:id="Front Alpha Turret"><g id="cam26" serif:id="cam"><path d="M20,28l4,4" style="fill:none;stroke:#ffce80;stroke-width:1.8px;"/><path d="M20,32l4,-4" style="fill:none;stroke:#ffce80;stroke-width:1.8px;"/></g></g></g></svg>