<?xml version="1.0" encoding="UTF-8" standalone="no"?><!DOCTYPE svg PUBLIC "-//W3C//DTD SVG 1.1//EN" "http://www.w3.org/Graphics/SVG/1.1/DTD/svg11.dtd"><svg width="184px" height="96px" viewBox="0 0 184 96" version="1.1" xmlns="http://www.w3.org/2000/svg" xmlns:xlink="http://www.w3.org/1999/xlink" xml:space="preserve" xmlns:serif="http://www.serif.com/" style="fill-rule:evenodd;clip-rule:evenodd;stroke-linecap:round;stroke-linejoin:round;stroke-miterlimit:1.5;"><g id="Ship"><g id="Rooms"><rect x="15" y="23" width="12" height="12" style="fill:#133951;stroke:#1d5f80;stroke-width:2px;"/><rect x="15" y="61" width="12" height="12" style="fill:#133951;stroke:#1d5f80;stroke-width:2px;"/><rect x="27" y="25" width="6" height="46" style="fill:#133951;stroke:#1d5f80;stroke-width:2px;"/><rect x="33" y="23" width="22" height="22" style="fill:#133951;stroke:#1d5f80;stroke-width:2px;"/><rect x="83" y="23" width="16" height="14" style="fill:#133951;stroke:#1d5f80;stroke-width:2px;"/><rect x="83" y="59" width="16" height="14" style="fill:#133951;stroke:#1d5f80;stroke-width:2px;"/><rect x="83" y="37" width="22" height="22" style="fill:#133951;stroke:#1d5f80;stroke-width:2px;"/><rect x="105" y="41" width="14" height="14" style="fill:#133951;stroke:#1d5f80;stroke-width:2px;"/><rect x="33" y="51" width="22" height="22" style="fill:#133951;stroke:#1d5f80;stroke-width:2px;"/><rect x="54.983" y="51" width="22" height="22" style="fill:#133951;stroke:#1d5f80;stroke-width:2px;"/><rect x="55" y="23" width="22" height="22" style="fill:#133951;stroke:#1d5f80;stroke-width:2px;"/><rect x="33" y="45" width="44" height="6" style="fill:#133951;stroke:#1d5f80;stroke-width:2px;"/><rect x="77" y="23" width="6" height="50" style="fill:#133951;stroke:#1d5f80;stroke-width:2px;"/><rect x="63" y="11" width="12" height="12" style="fill:#133951;stroke:#1d5f80;stroke-width:2px;"/><rect x="119" y="23" width="6" height="60" style="fill:#133951;stroke:#1d5f80;stroke-width:2px;"/><rect x="63" y="73" width="12" height="12" style="fill:#133951;stroke:#1d5f80;stroke-width:2px;"/><rect x="75" y="1" width="42" height="22" style="fill:#133951;stroke:#1d5f80;stroke-width:2px;"/><rect x="75" y="73" width="44" height="22" style="fill:#133951;stroke:#1d5f80;stroke-width:2px;"/><rect x="117" y="1" width="42" height="22" style="fill:#133951;stroke:#1d5f80;stroke-width:2px;"/><rect x="159" y="11" width="12" height="12" style="fill:#133951;stroke:#1d5f80;stroke-width:2px;"/><rect x="125" y="73" width="34" height="22" style="fill:#133951;stroke:#1d5f80;stroke-width:2px;"/><rect x="159" y="73" width="12" height="12" style="fill:#133951;stroke:#1d5f80;stroke-width:2px;"/><rect x="125" y="61" width="24" height="12" style="fill:#133951;stroke:#1d5f80;stroke-width:2px;"/><rect x="125" y="23" width="24" height="12" style="fill:#133951;stroke:#1d5f80;stroke-width:2px;"/><path d="M6,42.121l0,-7.121l21,0l0,26l-21,0l0,-7.121l-5,-3.102l0,-5.554l5,-3.102Z" style="fill:#133951;stroke:#1d5f80;stroke-width:2px;"/><path d="M183,28.005l-2,1.241l0,5.553l2,1.242l0,7.941l-2,1.241l0,5.554l2,1.241l0,7.941l-2,1.242l0,5.553l2,1.241l0,5.005l-34,0l0,-50l34,0l0,5.005Z" style="fill:#133951;stroke:#1d5f80;stroke-width:2px;"/><path d="M119,73l-20,0l0,-14l6,0l0,-4l14,0l0,18Z" style="fill:#133951;stroke:#1d5f80;stroke-width:2px;"/><path d="M119,23l-20,0l0,14l6,0l0,4l14,0l0,-18Z" style="fill:#133951;stroke:#1d5f80;stroke-width:2px;"/></g><g id="Doors"><path d="M20.5,61l3,0" style="fill:none;stroke:#12d7ff;stroke-width:2px;"/><path d="M20.5,35.015l3,0" style="fill:none;stroke:#12d7ff;stroke-width:2px;"/><path d="M48.525,45.001l3,0" style="fill:none;stroke:#12d7ff;stroke-width:2px;"/><path d="M48.525,51.014l3,0" style="fill:none;stroke:#12d7ff;stroke-width:2px;"/><path d="M58.51,45.001l3,0" style="fill:none;stroke:#12d7ff;stroke-width:2px;"/><path d="M68.5,22.99l3,-0" style="fill:none;stroke:#12d7ff;stroke-width:2px;"/><path d="M68.5,73.026l3,-0" style="fill:none;stroke:#12d7ff;stroke-width:2px;"/><path d="M78.486,22.99l3,-0" style="fill:none;stroke:#12d7ff;stroke-width:2px;"/><path d="M78.486,73.026l3,-0" style="fill:none;stroke:#12d7ff;stroke-width:2px;"/><path d="M86.539,22.99l3,-0" style="fill:none;stroke:#12d7ff;stroke-width:2px;"/><path d="M86.539,73.026l3,-0" style="fill:none;stroke:#12d7ff;stroke-width:2px;"/><path d="M102.538,22.99l3,-0" style="fill:none;stroke:#12d7ff;stroke-width:2px;"/><path d="M102.538,73.026l3,-0" style="fill:none;stroke:#12d7ff;stroke-width:2px;"/><path d="M120.469,22.99l3,-0" style="fill:none;stroke:#12d7ff;stroke-width:2px;"/><path d="M152.467,22.99l3,-0" style="fill:none;stroke:#12d7ff;stroke-width:2px;"/><path d="M152.467,73.026l3,-0" style="fill:none;stroke:#12d7ff;stroke-width:2px;"/><path d="M162.452,22.99l3,-0" style="fill:none;stroke:#12d7ff;stroke-width:2px;"/><path d="M162.452,73.026l3,-0" style="fill:none;stroke:#12d7ff;stroke-width:2px;"/><path d="M58.51,51.014l3,0" style="fill:none;stroke:#12d7ff;stroke-width:2px;"/><path d="M27,28.5l0,3" style="fill:none;stroke:#12d7ff;stroke-width:2px;"/><path d="M27,46.5l0,3" style="fill:none;stroke:#12d7ff;stroke-width:2px;"/><path d="M27,64.539l0,3" style="fill:none;stroke:#12d7ff;stroke-width:2px;"/><path d="M77.036,46.5l0,3" style="fill:none;stroke:#12d7ff;stroke-width:2px;"/><path d="M75,16.5l0,3" style="fill:none;stroke:#12d7ff;stroke-width:2px;"/><path d="M158.967,16.5l-0,3" style="fill:none;stroke:#12d7ff;stroke-width:2px;"/><path d="M116.983,16.5l0,3" style="fill:none;stroke:#12d7ff;stroke-width:2px;"/><path d="M75,76.522l0,3" style="fill:none;stroke:#12d7ff;stroke-width:2px;"/><path d="M158.967,76.522l-0,3" style="fill:none;stroke:#12d7ff;stroke-width:2px;"/><path d="M119,76.522l0,3" style="fill:none;stroke:#12d7ff;stroke-width:2px;"/><path d="M119,64.5l0,3" style="fill:none;stroke:#12d7ff;stroke-width:2px;"/><path d="M125.013,64.5l-0,3" style="fill:none;stroke:#12d7ff;stroke-width:2px;"/><path d="M148.957,64.5l0,3" style="fill:none;stroke:#12d7ff;stroke-width:2px;"/><path d="M119,27.452l0,3" style="fill:none;stroke:#12d7ff;stroke-width:2px;"/><path d="M125.013,27.452l-0,3" style="fill:none;stroke:#12d7ff;stroke-width:2px;"/><path d="M148.957,27.452l0,3" style="fill:none;stroke:#12d7ff;stroke-width:2px;"/><path d="M125.013,76.522l-0,3" style="fill:none;stroke:#12d7ff;stroke-width:2px;"/><path d="M55.025,38.5l-0,3" style="fill:none;stroke:#12d7ff;stroke-width:2px;"/><path d="M55.025,54.499l-0,3" style="fill:none;stroke:#12d7ff;stroke-width:2px;"/><path d="M83,46.5l0,3" style="fill:none;stroke:#12d7ff;stroke-width:2px;"/><path d="M118.97,46.5l0,3" style="fill:none;stroke:#12d7ff;stroke-width:2px;"/></g></g></svg>